<svg xmlns="http://www.w3.org/2000/svg" width="1920" height="1200"><path d="M-53,1336L-160,1307L97,1379Z" fill="#82a379" stroke="#82a379" stroke-width="1.51"/><path d="M477,1356L97,1379L801,1378Z" fill="#6b9861" stroke="#6b9861" stroke-width="1.51"/><path d="M1354,1378L801,1378L1515,1386Z" fill="#257944" stroke="#257944" stroke-width="1.51"/><path d="M1244,-160L1320,-158L1670,-168Z" fill="#9cca93" stroke="#9cca93" stroke-width="1.51"/><path d="M899,-180L1244,-160L1670,-168Z" fill="#a4d39a" stroke="#a4d39a" stroke-width="1.51"/><path d="M899,-180L1670,-168L1788,-173Z" fill="#9ac791" stroke="#9ac791" stroke-width="1.51"/><path d="M517,-188L899,-180L1788,-173Z" fill="#b4dea6" stroke="#b4dea6" stroke-width="1.51"/><path d="M1560,1383L1515,1386L1840,1388Z" fill="#0c6034" stroke="#0c6034" stroke-width="1.51"/><path d="M1726,1363L1560,1383L1840,1388Z" fill="#075e33" stroke="#075e33" stroke-width="1.51"/><path d="M2024,417L1951,524L2035,554Z" fill="#4f9057" stroke="#4f9057" stroke-width="1.51"/><path d="M2024,417L2035,554L2037,303Z" fill="#58915a" stroke="#58915a" stroke-width="1.51"/><path d="M1955,83L1913,181L2049,220Z" fill="#76a168" stroke="#76a168" stroke-width="1.51"/><path d="M2037,303L2035,554L2049,220Z" fill="#60945c" stroke="#60945c" stroke-width="1.51"/><path d="M1951,1323L1840,1388L2054,1363Z" fill="#00522e" stroke="#00522e" stroke-width="1.51"/><path d="M2033,1233L1951,1323L2054,1363Z" fill="#00532f" stroke="#00532f" stroke-width="1.51"/><path d="M2030,667L1965,748L2065,777Z" fill="#2e8049" stroke="#2e8049" stroke-width="1.51"/><path d="M1965,748L2025,915L2065,777Z" fill="#217b43" stroke="#217b43" stroke-width="1.51"/><path d="M2035,554L2030,667L2065,777Z" fill="#37834d" stroke="#37834d" stroke-width="1.51"/><path d="M1978,1030L1905,1094L2069,1148Z" fill="#0b6636" stroke="#0b6636" stroke-width="1.51"/><path d="M2021,965L1978,1030L2069,1148Z" fill="#0f6636" stroke="#0f6636" stroke-width="1.51"/><path d="M2065,777L2025,915L2069,1148Z" fill="#176d3b" stroke="#176d3b" stroke-width="1.51"/><path d="M2025,915L2021,965L2069,1148Z" fill="#116737" stroke="#116737" stroke-width="1.51"/><path d="M2033,1233L2054,1363L2069,1148Z" fill="#005630" stroke="#005630" stroke-width="1.51"/><path d="M1955,83L2049,220L2074,90Z" fill="#779e68" stroke="#779e68" stroke-width="1.51"/><path d="M2035,554L2065,777L2074,90Z" fill="#518d57" stroke="#518d57" stroke-width="1.51"/><path d="M2049,220L2035,554L2074,90Z" fill="#679660" stroke="#679660" stroke-width="1.51"/><path d="M2024,-133L1907,-9L2074,-2Z" fill="#82a474" stroke="#82a474" stroke-width="1.51"/><path d="M1955,83L2074,90L2074,-2Z" fill="#7ca06c" stroke="#7ca06c" stroke-width="1.51"/><path d="M1907,-9L1955,83L2074,-2Z" fill="#80a56f" stroke="#80a56f" stroke-width="1.51"/><path d="M1975,680L1965,748L2030,667Z" fill="#34844c" stroke="#34844c" stroke-width="1.51"/><path d="M1948,1265L1951,1323L2033,1233Z" fill="#005830" stroke="#005830" stroke-width="1.51"/><path d="M1905,1094L2033,1233L2069,1148Z" fill="#046034" stroke="#046034" stroke-width="1.51"/><path d="M1974,-146L1907,-9L2024,-133Z" fill="#84a77a" stroke="#84a77a" stroke-width="1.51"/><path d="M1965,748L1903,915L2025,915Z" fill="#1f7a42" stroke="#1f7a42" stroke-width="1.51"/><path d="M1905,1094L1948,1265L2033,1233Z" fill="#006033" stroke="#006033" stroke-width="1.51"/><path d="M1975,680L2030,667L2035,554Z" fill="#3c8650" stroke="#3c8650" stroke-width="1.51"/><path d="M1930,409L2024,417L2037,303Z" fill="#5f965d" stroke="#5f965d" stroke-width="1.51"/><path d="M1906,346L1930,409L2037,303Z" fill="#639a5f" stroke="#639a5f" stroke-width="1.51"/><path d="M1913,181L2037,303L2049,220Z" fill="#6f9c64" stroke="#6f9c64" stroke-width="1.51"/><path d="M1951,524L1975,680L2035,554Z" fill="#438c53" stroke="#438c53" stroke-width="1.51"/><path d="M1930,409L1951,524L2024,417Z" fill="#57945b" stroke="#57945b" stroke-width="1.51"/><path d="M1913,181L1906,346L2037,303Z" fill="#6b9e63" stroke="#6b9e63" stroke-width="1.51"/><path d="M1903,915L2021,965L2025,915Z" fill="#19723d" stroke="#19723d" stroke-width="1.51"/><path d="M1852,799L1903,915L1965,748Z" fill="#228246" stroke="#228246" stroke-width="1.51"/><path d="M1903,915L1978,1030L2021,965Z" fill="#166f3b" stroke="#166f3b" stroke-width="1.51"/><path d="M1855,205L1906,346L1913,181Z" fill="#71a367" stroke="#71a367" stroke-width="1.51"/><path d="M1905,1094L1820,1216L1948,1265Z" fill="#016436" stroke="#016436" stroke-width="1.51"/><path d="M1813,-57L1907,-9L1974,-146Z" fill="#86ac79" stroke="#86ac79" stroke-width="1.51"/><path d="M1951,524L1839,626L1975,680Z" fill="#418f54" stroke="#418f54" stroke-width="1.51"/><path d="M1903,915L1905,1094L1978,1030Z" fill="#136f3a" stroke="#136f3a" stroke-width="1.51"/><path d="M1843,1110L1820,1216L1905,1094Z" fill="#076a38" stroke="#076a38" stroke-width="1.51"/><path d="M1788,-173L1813,-57L1974,-146Z" fill="#88af80" stroke="#88af80" stroke-width="1.51"/><path d="M1839,626L1965,748L1975,680Z" fill="#368a4f" stroke="#368a4f" stroke-width="1.51"/><path d="M1903,915L1784,1032L1905,1094Z" fill="#13723b" stroke="#13723b" stroke-width="1.51"/><path d="M1930,409L1860,398L1951,524Z" fill="#59995c" stroke="#59995c" stroke-width="1.51"/><path d="M1817,545L1839,626L1951,524Z" fill="#499558" stroke="#499558" stroke-width="1.51"/><path d="M1839,626L1852,799L1965,748Z" fill="#32894d" stroke="#32894d" stroke-width="1.51"/><path d="M1860,398L1817,545L1951,524Z" fill="#54985b" stroke="#54985b" stroke-width="1.51"/><path d="M1813,59L1913,181L1955,83Z" fill="#7ca86d" stroke="#7ca86d" stroke-width="1.51"/><path d="M1907,-9L1813,59L1955,83Z" fill="#81aa71" stroke="#81aa71" stroke-width="1.51"/><path d="M1848,907L1784,1032L1903,915Z" fill="#19793f" stroke="#19793f" stroke-width="1.51"/><path d="M1820,1216L1840,1388L1948,1265Z" fill="#005d33" stroke="#005d33" stroke-width="1.51"/><path d="M1948,1265L1840,1388L1951,1323Z" fill="#005831" stroke="#005831" stroke-width="1.51"/><path d="M1852,799L1848,907L1903,915Z" fill="#1f7f44" stroke="#1f7f44" stroke-width="1.51"/><path d="M1784,1032L1843,1110L1905,1094Z" fill="#0d6f3a" stroke="#0d6f3a" stroke-width="1.51"/><path d="M1855,205L1821,352L1906,346Z" fill="#6ba364" stroke="#6ba364" stroke-width="1.51"/><path d="M1813,59L1855,205L1913,181Z" fill="#7aa96c" stroke="#7aa96c" stroke-width="1.51"/><path d="M1906,346L1860,398L1930,409Z" fill="#619c5f" stroke="#619c5f" stroke-width="1.51"/><path d="M1320,-158L1503,-126L1670,-168Z" fill="#97c38d" stroke="#97c38d" stroke-width="1.51"/><path d="M1839,626L1748,698L1852,799Z" fill="#359050" stroke="#359050" stroke-width="1.51"/><path d="M1813,-57L1813,59L1907,-9Z" fill="#86af74" stroke="#86af74" stroke-width="1.51"/><path d="M1002,1334L801,1378L1354,1378Z" fill="#37824d" stroke="#37824d" stroke-width="1.51"/><path d="M1821,352L1860,398L1906,346Z" fill="#64a061" stroke="#64a061" stroke-width="1.51"/><path d="M899,-180L1020,-155L1244,-160Z" fill="#b5dea5" stroke="#b5dea5" stroke-width="1.51"/><path d="M1820,1216L1726,1363L1840,1388Z" fill="#025f33" stroke="#025f33" stroke-width="1.51"/><path d="M1712,976L1784,1032L1848,907Z" fill="#197b40" stroke="#197b40" stroke-width="1.51"/><path d="M1705,921L1848,907L1852,799Z" fill="#208345" stroke="#208345" stroke-width="1.51"/><path d="M1813,59L1735,90L1855,205Z" fill="#7fae6f" stroke="#7fae6f" stroke-width="1.51"/><path d="M1677,230L1821,352L1855,205Z" fill="#72a968" stroke="#72a968" stroke-width="1.51"/><path d="M1821,352L1730,386L1860,398Z" fill="#64a362" stroke="#64a362" stroke-width="1.51"/><path d="M1730,386L1817,545L1860,398Z" fill="#5ca05f" stroke="#5ca05f" stroke-width="1.51"/><path d="M1732,1110L1820,1216L1843,1110Z" fill="#076d39" stroke="#076d39" stroke-width="1.51"/><path d="M1705,921L1712,976L1848,907Z" fill="#1e7f43" stroke="#1e7f43" stroke-width="1.51"/><path d="M1748,698L1693,761L1852,799Z" fill="#318f4e" stroke="#318f4e" stroke-width="1.51"/><path d="M1693,761L1705,921L1852,799Z" fill="#278a4a" stroke="#278a4a" stroke-width="1.51"/><path d="M1735,90L1677,230L1855,205Z" fill="#7cae6d" stroke="#7cae6d" stroke-width="1.51"/><path d="M1730,386L1705,552L1817,545Z" fill="#579f5e" stroke="#579f5e" stroke-width="1.51"/><path d="M1686,1229L1726,1363L1820,1216Z" fill="#056636" stroke="#056636" stroke-width="1.51"/><path d="M1677,230L1674,349L1821,352Z" fill="#6faa67" stroke="#6faa67" stroke-width="1.51"/><path d="M1784,1032L1732,1110L1843,1110Z" fill="#0f723b" stroke="#0f723b" stroke-width="1.51"/><path d="M1692,-1L1813,59L1813,-57Z" fill="#88b376" stroke="#88b376" stroke-width="1.51"/><path d="M1817,545L1705,552L1839,626Z" fill="#4a9959" stroke="#4a9959" stroke-width="1.51"/><path d="M1674,349L1730,386L1821,352Z" fill="#69a764" stroke="#69a764" stroke-width="1.51"/><path d="M1705,552L1748,698L1839,626Z" fill="#449856" stroke="#449856" stroke-width="1.51"/><path d="M1692,-1L1735,90L1813,59Z" fill="#86b374" stroke="#86b374" stroke-width="1.51"/><path d="M1788,-173L1670,-168L1813,-57Z" fill="#8cb584" stroke="#8cb584" stroke-width="1.51"/><path d="M1732,1110L1686,1229L1820,1216Z" fill="#076d39" stroke="#076d39" stroke-width="1.51"/><path d="M1670,-168L1692,-1L1813,-57Z" fill="#8cb67f" stroke="#8cb67f" stroke-width="1.51"/><path d="M1020,-155L1126,-148L1244,-160Z" fill="#aedaa0" stroke="#aedaa0" stroke-width="1.51"/><path d="M1169,1332L1002,1334L1354,1378Z" fill="#2b7f48" stroke="#2b7f48" stroke-width="1.51"/><path d="M1670,-168L1621,-122L1692,-1Z" fill="#8fb982" stroke="#8fb982" stroke-width="1.51"/><path d="M1693,761L1629,870L1705,921Z" fill="#298b49" stroke="#298b49" stroke-width="1.51"/><path d="M1625,428L1705,552L1730,386Z" fill="#5fa561" stroke="#5fa561" stroke-width="1.51"/><path d="M1712,976L1732,1110L1784,1032Z" fill="#16773d" stroke="#16773d" stroke-width="1.51"/><path d="M1581,615L1578,731L1693,761Z" fill="#3f9a55" stroke="#3f9a55" stroke-width="1.51"/><path d="M1712,976L1632,985L1732,1110Z" fill="#1a7b3f" stroke="#1a7b3f" stroke-width="1.51"/><path d="M1632,985L1593,1077L1732,1110Z" fill="#197a3f" stroke="#197a3f" stroke-width="1.51"/><path d="M1590,68L1677,230L1735,90Z" fill="#83b471" stroke="#83b471" stroke-width="1.51"/><path d="M1705,552L1581,615L1748,698Z" fill="#489c59" stroke="#489c59" stroke-width="1.51"/><path d="M1581,615L1693,761L1748,698Z" fill="#3e9754" stroke="#3e9754" stroke-width="1.51"/><path d="M1590,68L1560,183L1677,230Z" fill="#83b772" stroke="#83b772" stroke-width="1.51"/><path d="M1686,1229L1560,1383L1726,1363Z" fill="#0b6536" stroke="#0b6536" stroke-width="1.51"/><path d="M1593,1077L1686,1229L1732,1110Z" fill="#12743c" stroke="#12743c" stroke-width="1.51"/><path d="M1692,-1L1590,68L1735,90Z" fill="#89b675" stroke="#89b675" stroke-width="1.51"/><path d="M1674,349L1625,428L1730,386Z" fill="#68a965" stroke="#68a965" stroke-width="1.51"/><path d="M1625,428L1597,540L1705,552Z" fill="#59a45f" stroke="#59a45f" stroke-width="1.51"/><path d="M1593,1077L1563,1229L1686,1229Z" fill="#11733c" stroke="#11733c" stroke-width="1.51"/><path d="M1563,1229L1560,1383L1686,1229Z" fill="#0f6b39" stroke="#0f6b39" stroke-width="1.51"/><path d="M1597,540L1581,615L1705,552Z" fill="#51a25d" stroke="#51a25d" stroke-width="1.51"/><path d="M1705,921L1632,985L1712,976Z" fill="#1f8042" stroke="#1f8042" stroke-width="1.51"/><path d="M1570,332L1674,349L1677,230Z" fill="#73af6a" stroke="#73af6a" stroke-width="1.51"/><path d="M1621,-122L1553,-23L1692,-1Z" fill="#90bb7e" stroke="#90bb7e" stroke-width="1.51"/><path d="M1629,870L1632,985L1705,921Z" fill="#248545" stroke="#248545" stroke-width="1.51"/><path d="M1578,731L1629,870L1693,761Z" fill="#30934f" stroke="#30934f" stroke-width="1.51"/><path d="M1553,-23L1590,68L1692,-1Z" fill="#8ebb79" stroke="#8ebb79" stroke-width="1.51"/><path d="M1503,-126L1621,-122L1670,-168Z" fill="#93bd88" stroke="#93bd88" stroke-width="1.51"/><path d="M1570,332L1625,428L1674,349Z" fill="#6cad67" stroke="#6cad67" stroke-width="1.51"/><path d="M1560,183L1570,332L1677,230Z" fill="#7bb36d" stroke="#7bb36d" stroke-width="1.51"/><path d="M1492,1199L1563,1229L1593,1077Z" fill="#16783d" stroke="#16783d" stroke-width="1.51"/><path d="M1516,530L1597,540L1625,428Z" fill="#5da861" stroke="#5da861" stroke-width="1.51"/><path d="M1578,731L1479,762L1629,870Z" fill="#339750" stroke="#339750" stroke-width="1.51"/><path d="M1479,762L1461,851L1629,870Z" fill="#31964f" stroke="#31964f" stroke-width="1.51"/><path d="M1458,1012L1593,1077L1632,985Z" fill="#218142" stroke="#218142" stroke-width="1.51"/><path d="M1629,870L1461,851L1632,985Z" fill="#298b48" stroke="#298b48" stroke-width="1.51"/><path d="M1461,851L1458,1012L1632,985Z" fill="#288a47" stroke="#288a47" stroke-width="1.51"/><path d="M1471,1133L1492,1199L1593,1077Z" fill="#1b7b3f" stroke="#1b7b3f" stroke-width="1.51"/><path d="M1503,-126L1553,-23L1621,-122Z" fill="#93bf84" stroke="#93bf84" stroke-width="1.51"/><path d="M1570,332L1474,385L1625,428Z" fill="#6eb068" stroke="#6eb068" stroke-width="1.51"/><path d="M1474,385L1516,530L1625,428Z" fill="#66ad65" stroke="#66ad65" stroke-width="1.51"/><path d="M1515,1386L1560,1383L1563,1229Z" fill="#126938" stroke="#126938" stroke-width="1.51"/><path d="M1560,183L1437,214L1570,332Z" fill="#7fb870" stroke="#7fb870" stroke-width="1.51"/><path d="M1437,214L1470,347L1570,332Z" fill="#7ab86e" stroke="#7ab86e" stroke-width="1.51"/><path d="M1491,616L1578,731L1581,615Z" fill="#48a159" stroke="#48a159" stroke-width="1.51"/><path d="M1553,-23L1514,-13L1590,68Z" fill="#91be7a" stroke="#91be7a" stroke-width="1.51"/><path d="M1458,50L1560,183L1590,68Z" fill="#8bbc77" stroke="#8bbc77" stroke-width="1.51"/><path d="M1516,530L1581,615L1597,540Z" fill="#54a55f" stroke="#54a55f" stroke-width="1.51"/><path d="M1458,1012L1471,1133L1593,1077Z" fill="#208142" stroke="#208142" stroke-width="1.51"/><path d="M1516,530L1491,616L1581,615Z" fill="#53a65e" stroke="#53a65e" stroke-width="1.51"/><path d="M1514,-13L1458,50L1590,68Z" fill="#90bf7a" stroke="#90bf7a" stroke-width="1.51"/><path d="M1492,1199L1515,1386L1563,1229Z" fill="#14713b" stroke="#14713b" stroke-width="1.51"/><path d="M1491,616L1479,762L1578,731Z" fill="#429f58" stroke="#429f58" stroke-width="1.51"/><path d="M1470,347L1474,385L1570,332Z" fill="#73b46b" stroke="#73b46b" stroke-width="1.51"/><path d="M1503,-126L1514,-13L1553,-23Z" fill="#94c182" stroke="#94c182" stroke-width="1.51"/><path d="M1458,50L1437,214L1560,183Z" fill="#89be76" stroke="#89be76" stroke-width="1.51"/><path d="M1492,1199L1370,1266L1515,1386Z" fill="#18733d" stroke="#18733d" stroke-width="1.51"/><path d="M1395,61L1437,214L1458,50Z" fill="#8fc37b" stroke="#8fc37b" stroke-width="1.51"/><path d="M1387,891L1458,1012L1461,851Z" fill="#2f924d" stroke="#2f924d" stroke-width="1.51"/><path d="M1341,444L1394,543L1474,385Z" fill="#6bb66b" stroke="#6bb66b" stroke-width="1.51"/><path d="M1388,745L1479,762L1491,616Z" fill="#45a35a" stroke="#45a35a" stroke-width="1.51"/><path d="M1385,620L1388,745L1491,616Z" fill="#4da85f" stroke="#4da85f" stroke-width="1.51"/><path d="M1503,-126L1319,-3L1514,-13Z" fill="#98c685" stroke="#98c685" stroke-width="1.51"/><path d="M1319,-3L1458,50L1514,-13Z" fill="#97c680" stroke="#97c680" stroke-width="1.51"/><path d="M1370,1266L1354,1378L1515,1386Z" fill="#19713d" stroke="#19713d" stroke-width="1.51"/><path d="M1394,543L1491,616L1516,530Z" fill="#59ab62" stroke="#59ab62" stroke-width="1.51"/><path d="M1474,385L1394,543L1516,530Z" fill="#64b067" stroke="#64b067" stroke-width="1.51"/><path d="M657,1354L477,1356L801,1378Z" fill="#5d925c" stroke="#5d925c" stroke-width="1.51"/><path d="M1256,1339L1169,1332L1354,1378Z" fill="#227a44" stroke="#227a44" stroke-width="1.51"/><path d="M1387,891L1382,986L1458,1012Z" fill="#2d904b" stroke="#2d904b" stroke-width="1.51"/><path d="M1319,-3L1395,61L1458,50Z" fill="#97c881" stroke="#97c881" stroke-width="1.51"/><path d="M1320,-158L1319,-3L1503,-126Z" fill="#9ccb8d" stroke="#9ccb8d" stroke-width="1.51"/><path d="M1437,214L1364,332L1470,347Z" fill="#7dbd71" stroke="#7dbd71" stroke-width="1.51"/><path d="M1458,1012L1361,1136L1471,1133Z" fill="#238445" stroke="#238445" stroke-width="1.51"/><path d="M1394,543L1385,620L1491,616Z" fill="#57ad63" stroke="#57ad63" stroke-width="1.51"/><path d="M1471,1133L1361,1136L1492,1199Z" fill="#1e8042" stroke="#1e8042" stroke-width="1.51"/><path d="M1361,1136L1370,1266L1492,1199Z" fill="#1d7e42" stroke="#1d7e42" stroke-width="1.51"/><path d="M1388,745L1461,851L1479,762Z" fill="#3a9e55" stroke="#3a9e55" stroke-width="1.51"/><path d="M1382,986L1361,1136L1458,1012Z" fill="#278a47" stroke="#278a47" stroke-width="1.51"/><path d="M1470,347L1364,332L1474,385Z" fill="#77b96f" stroke="#77b96f" stroke-width="1.51"/><path d="M1364,332L1341,444L1474,385Z" fill="#75ba6f" stroke="#75ba6f" stroke-width="1.51"/><path d="M1395,61L1336,218L1437,214Z" fill="#8dc57a" stroke="#8dc57a" stroke-width="1.51"/><path d="M1388,745L1387,891L1461,851Z" fill="#379d53" stroke="#379d53" stroke-width="1.51"/><path d="M1336,218L1364,332L1437,214Z" fill="#85c276" stroke="#85c276" stroke-width="1.51"/><path d="M1361,1136L1278,1206L1370,1266Z" fill="#208346" stroke="#208346" stroke-width="1.51"/><path d="M1286,1032L1361,1136L1382,986Z" fill="#2a8d4a" stroke="#2a8d4a" stroke-width="1.51"/><path d="M1214,926L1382,986L1387,891Z" fill="#339851" stroke="#339851" stroke-width="1.51"/><path d="M1277,741L1214,926L1387,891Z" fill="#3ba357" stroke="#3ba357" stroke-width="1.51"/><path d="M1385,620L1288,686L1388,745Z" fill="#4dab60" stroke="#4dab60" stroke-width="1.51"/><path d="M1277,741L1387,891L1388,745Z" fill="#3da459" stroke="#3da459" stroke-width="1.51"/><path d="M1235,574L1385,620L1394,543Z" fill="#5db368" stroke="#5db368" stroke-width="1.51"/><path d="M1341,444L1235,574L1394,543Z" fill="#66b86b" stroke="#66b86b" stroke-width="1.51"/><path d="M1274,79L1336,218L1395,61Z" fill="#94ca7f" stroke="#94ca7f" stroke-width="1.51"/><path d="M1319,-3L1274,79L1395,61Z" fill="#9acd83" stroke="#9acd83" stroke-width="1.51"/><path d="M1256,1339L1354,1378L1370,1266Z" fill="#1f7842" stroke="#1f7842" stroke-width="1.51"/><path d="M1214,926L1286,1032L1382,986Z" fill="#31964f" stroke="#31964f" stroke-width="1.51"/><path d="M1288,686L1277,741L1388,745Z" fill="#4aab5f" stroke="#4aab5f" stroke-width="1.51"/><path d="M1264,415L1341,444L1364,332Z" fill="#77bf71" stroke="#77bf71" stroke-width="1.51"/><path d="M1235,574L1288,686L1385,620Z" fill="#57b266" stroke="#57b266" stroke-width="1.51"/><path d="M1286,1032L1273,1134L1361,1136Z" fill="#298c4a" stroke="#298c4a" stroke-width="1.51"/><path d="M1274,79L1252,207L1336,218Z" fill="#92cc7f" stroke="#92cc7f" stroke-width="1.51"/><path d="M1273,1134L1278,1206L1361,1136Z" fill="#258849" stroke="#258849" stroke-width="1.51"/><path d="M1336,218L1235,289L1364,332Z" fill="#85c578" stroke="#85c578" stroke-width="1.51"/><path d="M1278,1206L1256,1339L1370,1266Z" fill="#217f45" stroke="#217f45" stroke-width="1.51"/><path d="M1244,-160L1319,-3L1320,-158Z" fill="#a1d293" stroke="#a1d293" stroke-width="1.51"/><path d="M1235,289L1264,415L1364,332Z" fill="#7fc376" stroke="#7fc376" stroke-width="1.51"/><path d="M1264,415L1235,574L1341,444Z" fill="#6fbd70" stroke="#6fbd70" stroke-width="1.51"/><path d="M1244,-160L1207,-4L1319,-3Z" fill="#a2d48f" stroke="#a2d48f" stroke-width="1.51"/><path d="M1252,207L1235,289L1336,218Z" fill="#8cca7c" stroke="#8cca7c" stroke-width="1.51"/><path d="M1207,-4L1274,79L1319,-3Z" fill="#9ed187" stroke="#9ed187" stroke-width="1.51"/><path d="M1158,-36L1207,-4L1244,-160Z" fill="#a7d693" stroke="#a7d693" stroke-width="1.51"/><path d="M1097,525L1235,574L1264,415Z" fill="#70c172" stroke="#70c172" stroke-width="1.51"/><path d="M1117,162L1252,207L1274,79Z" fill="#98d183" stroke="#98d183" stroke-width="1.51"/><path d="M1136,734L1214,926L1277,741Z" fill="#45ad5f" stroke="#45ad5f" stroke-width="1.51"/><path d="M1169,1332L1256,1339L1278,1206Z" fill="#258147" stroke="#258147" stroke-width="1.51"/><path d="M1126,1238L1169,1332L1278,1206Z" fill="#2b864a" stroke="#2b864a" stroke-width="1.51"/><path d="M1164,1116L1273,1134L1286,1032Z" fill="#2d914e" stroke="#2d914e" stroke-width="1.51"/><path d="M1144,699L1277,741L1288,686Z" fill="#50b264" stroke="#50b264" stroke-width="1.51"/><path d="M1235,574L1144,699L1288,686Z" fill="#59b668" stroke="#59b668" stroke-width="1.51"/><path d="M1104,970L1164,1116L1214,926Z" fill="#3c9b54" stroke="#3c9b54" stroke-width="1.51"/><path d="M1214,926L1164,1116L1286,1032Z" fill="#349751" stroke="#349751" stroke-width="1.51"/><path d="M1114,62L1117,162L1274,79Z" fill="#a0d489" stroke="#a0d489" stroke-width="1.51"/><path d="M1273,1134L1164,1116L1278,1206Z" fill="#2a8d4c" stroke="#2a8d4c" stroke-width="1.51"/><path d="M1164,1116L1126,1238L1278,1206Z" fill="#2d8c4d" stroke="#2d8c4d" stroke-width="1.51"/><path d="M1144,699L1136,734L1277,741Z" fill="#53b365" stroke="#53b365" stroke-width="1.51"/><path d="M1136,734L1108,913L1214,926Z" fill="#47aa5e" stroke="#47aa5e" stroke-width="1.51"/><path d="M1089,415L1097,525L1264,415Z" fill="#7cc677" stroke="#7cc677" stroke-width="1.51"/><path d="M1235,289L1089,415L1264,415Z" fill="#82c879" stroke="#82c879" stroke-width="1.51"/><path d="M1207,-4L1114,62L1274,79Z" fill="#a2d58a" stroke="#a2d58a" stroke-width="1.51"/><path d="M1143,270L1089,415L1235,289Z" fill="#8bcc7e" stroke="#8bcc7e" stroke-width="1.51"/><path d="M1126,-148L1158,-36L1244,-160Z" fill="#aad899" stroke="#aad899" stroke-width="1.51"/><path d="M1143,270L1235,289L1252,207Z" fill="#8ecd7e" stroke="#8ecd7e" stroke-width="1.51"/><path d="M1117,162L1143,270L1252,207Z" fill="#97d182" stroke="#97d182" stroke-width="1.51"/><path d="M1097,525L1144,699L1235,574Z" fill="#66bc6f" stroke="#66bc6f" stroke-width="1.51"/><path d="M1058,874L1108,913L1136,734Z" fill="#4eae61" stroke="#4eae61" stroke-width="1.51"/><path d="M1108,913L1104,970L1214,926Z" fill="#43a359" stroke="#43a359" stroke-width="1.51"/><path d="M1158,-36L1114,62L1207,-4Z" fill="#a7d78e" stroke="#a7d78e" stroke-width="1.51"/><path d="M1042,537L1010,656L1097,525Z" fill="#74c476" stroke="#74c476" stroke-width="1.51"/><path d="M1097,525L1010,656L1144,699Z" fill="#6abe71" stroke="#6abe71" stroke-width="1.51"/><path d="M1126,-148L1057,-65L1158,-36Z" fill="#aedb99" stroke="#aedb99" stroke-width="1.51"/><path d="M1004,1137L1126,1238L1164,1116Z" fill="#399251" stroke="#399251" stroke-width="1.51"/><path d="M1104,970L1004,1137L1164,1116Z" fill="#409955" stroke="#409955" stroke-width="1.51"/><path d="M1126,1238L1002,1334L1169,1332Z" fill="#34864d" stroke="#34864d" stroke-width="1.51"/><path d="M1015,757L1058,874L1136,734Z" fill="#55b466" stroke="#55b466" stroke-width="1.51"/><path d="M993,321L1089,415L1143,270Z" fill="#90cf81" stroke="#90cf81" stroke-width="1.51"/><path d="M1117,162L1054,192L1143,270Z" fill="#9dd486" stroke="#9dd486" stroke-width="1.51"/><path d="M1057,-65L1114,62L1158,-36Z" fill="#adda92" stroke="#adda92" stroke-width="1.51"/><path d="M1018,1250L1002,1334L1126,1238Z" fill="#3a8c50" stroke="#3a8c50" stroke-width="1.51"/><path d="M986,987L1004,1137L1104,970Z" fill="#479f59" stroke="#479f59" stroke-width="1.51"/><path d="M1114,62L1029,115L1117,162Z" fill="#a6d88c" stroke="#a6d88c" stroke-width="1.51"/><path d="M1004,1137L1018,1250L1126,1238Z" fill="#3c9153" stroke="#3c9153" stroke-width="1.51"/><path d="M1010,656L1136,734L1144,699Z" fill="#5fb96c" stroke="#5fb96c" stroke-width="1.51"/><path d="M1054,192L993,321L1143,270Z" fill="#9ad385" stroke="#9ad385" stroke-width="1.51"/><path d="M1010,656L1015,757L1136,734Z" fill="#61b96c" stroke="#61b96c" stroke-width="1.51"/><path d="M1020,-155L1057,-65L1126,-148Z" fill="#b3dd9f" stroke="#b3dd9f" stroke-width="1.51"/><path d="M88,-172L292,-152L517,-188Z" fill="#f0f9c4" stroke="#f0f9c4" stroke-width="1.51"/><path d="M944,-18L1029,115L1057,-65Z" fill="#b4de95" stroke="#b4de95" stroke-width="1.51"/><path d="M993,321L1015,416L1089,415Z" fill="#8ecf81" stroke="#8ecf81" stroke-width="1.51"/><path d="M1015,416L1042,537L1089,415Z" fill="#84ca7c" stroke="#84ca7c" stroke-width="1.51"/><path d="M1089,415L1042,537L1097,525Z" fill="#7dc779" stroke="#7dc779" stroke-width="1.51"/><path d="M1057,-65L1029,115L1114,62Z" fill="#addb90" stroke="#addb90" stroke-width="1.51"/><path d="M1029,115L1054,192L1117,162Z" fill="#a4d78a" stroke="#a4d78a" stroke-width="1.51"/><path d="M1058,874L986,987L1104,970Z" fill="#4ba65d" stroke="#4ba65d" stroke-width="1.51"/><path d="M1058,874L1104,970L1108,913Z" fill="#4aa75d" stroke="#4aa75d" stroke-width="1.51"/><path d="M903,1310L801,1378L1002,1334Z" fill="#468b53" stroke="#468b53" stroke-width="1.51"/><path d="M944,-18L930,85L1029,115Z" fill="#b3df95" stroke="#b3df95" stroke-width="1.51"/><path d="M1015,416L928,436L1042,537Z" fill="#88cd7e" stroke="#88cd7e" stroke-width="1.51"/><path d="M935,300L993,321L1054,192Z" fill="#9fd688" stroke="#9fd688" stroke-width="1.51"/><path d="M890,231L935,300L1054,192Z" fill="#a5d98b" stroke="#a5d98b" stroke-width="1.51"/><path d="M1020,-155L944,-18L1057,-65Z" fill="#b7e09e" stroke="#b7e09e" stroke-width="1.51"/><path d="M1015,757L887,904L1058,874Z" fill="#58b266" stroke="#58b266" stroke-width="1.51"/><path d="M887,904L986,987L1058,874Z" fill="#54ab62" stroke="#54ab62" stroke-width="1.51"/><path d="M986,987L920,1012L1004,1137Z" fill="#4da15b" stroke="#4da15b" stroke-width="1.51"/><path d="M888,570L1010,656L1042,537Z" fill="#78c678" stroke="#78c678" stroke-width="1.51"/><path d="M1029,115L890,231L1054,192Z" fill="#a9da8d" stroke="#a9da8d" stroke-width="1.51"/><path d="M888,570L909,640L1010,656Z" fill="#78c678" stroke="#78c678" stroke-width="1.51"/><path d="M930,85L890,231L1029,115Z" fill="#afdd91" stroke="#afdd91" stroke-width="1.51"/><path d="M928,436L888,570L1042,537Z" fill="#84cc7e" stroke="#84cc7e" stroke-width="1.51"/><path d="M920,1012L890,1099L1004,1137Z" fill="#4ea05c" stroke="#4ea05c" stroke-width="1.51"/><path d="M1010,656L879,729L1015,757Z" fill="#69be70" stroke="#69be70" stroke-width="1.51"/><path d="M879,729L887,904L1015,757Z" fill="#62ba6c" stroke="#62ba6c" stroke-width="1.51"/><path d="M1004,1137L882,1213L1018,1250Z" fill="#449656" stroke="#449656" stroke-width="1.51"/><path d="M899,-180L944,-18L1020,-155Z" fill="#bce2a5" stroke="#bce2a5" stroke-width="1.51"/><path d="M909,640L879,729L1010,656Z" fill="#71c274" stroke="#71c274" stroke-width="1.51"/><path d="M993,321L928,436L1015,416Z" fill="#93d183" stroke="#93d183" stroke-width="1.51"/><path d="M903,1310L1002,1334L1018,1250Z" fill="#408c53" stroke="#408c53" stroke-width="1.51"/><path d="M882,1213L903,1310L1018,1250Z" fill="#469156" stroke="#469156" stroke-width="1.51"/><path d="M935,300L928,436L993,321Z" fill="#99d486" stroke="#99d486" stroke-width="1.51"/><path d="M517,-188L788,-123L899,-180Z" fill="#d0ebb2" stroke="#d0ebb2" stroke-width="1.51"/><path d="M890,1099L882,1213L1004,1137Z" fill="#4b9b59" stroke="#4b9b59" stroke-width="1.51"/><path d="M879,729L826,860L887,904Z" fill="#66b96c" stroke="#66b96c" stroke-width="1.51"/><path d="M887,904L920,1012L986,987Z" fill="#56a960" stroke="#56a960" stroke-width="1.51"/><path d="M517,-188L646,-114L788,-123Z" fill="#d7eeb3" stroke="#d7eeb3" stroke-width="1.51"/><path d="M824,412L888,570L928,436Z" fill="#91d182" stroke="#91d182" stroke-width="1.51"/><path d="M806,204L890,231L930,85Z" fill="#b3df92" stroke="#b3df92" stroke-width="1.51"/><path d="M824,412L928,436L935,300Z" fill="#9bd587" stroke="#9bd587" stroke-width="1.51"/><path d="M899,-180L788,-123L944,-18Z" fill="#c2e6a7" stroke="#c2e6a7" stroke-width="1.51"/><path d="M788,-123L788,-6L944,-18Z" fill="#c5e7a2" stroke="#c5e7a2" stroke-width="1.51"/><path d="M794,44L930,85L944,-18Z" fill="#bce399" stroke="#bce399" stroke-width="1.51"/><path d="M788,-6L794,44L944,-18Z" fill="#c2e59d" stroke="#c2e59d" stroke-width="1.51"/><path d="M794,44L806,204L930,85Z" fill="#bbe296" stroke="#bbe296" stroke-width="1.51"/><path d="M890,231L788,288L935,300Z" fill="#a9db8d" stroke="#a9db8d" stroke-width="1.51"/><path d="M788,288L824,412L935,300Z" fill="#a4d98b" stroke="#a4d98b" stroke-width="1.51"/><path d="M887,904L783,977L920,1012Z" fill="#5cac63" stroke="#5cac63" stroke-width="1.51"/><path d="M824,412L765,546L888,570Z" fill="#90d082" stroke="#90d082" stroke-width="1.51"/><path d="M801,1129L882,1213L890,1099Z" fill="#529e5c" stroke="#529e5c" stroke-width="1.51"/><path d="M783,977L890,1099L920,1012Z" fill="#58a660" stroke="#58a660" stroke-width="1.51"/><path d="M882,1213L797,1197L903,1310Z" fill="#4e9659" stroke="#4e9659" stroke-width="1.51"/><path d="M888,570L746,695L909,640Z" fill="#7ec87a" stroke="#7ec87a" stroke-width="1.51"/><path d="M746,695L879,729L909,640Z" fill="#78c577" stroke="#78c577" stroke-width="1.51"/><path d="M801,1129L797,1197L882,1213Z" fill="#549d5c" stroke="#549d5c" stroke-width="1.51"/><path d="M765,546L746,695L888,570Z" fill="#87cd7e" stroke="#87cd7e" stroke-width="1.51"/><path d="M783,977L801,1129L890,1099Z" fill="#5ba560" stroke="#5ba560" stroke-width="1.51"/><path d="M797,1197L801,1378L903,1310Z" fill="#4f9258" stroke="#4f9258" stroke-width="1.51"/><path d="M761,740L826,860L879,729Z" fill="#6fc071" stroke="#6fc071" stroke-width="1.51"/><path d="M826,860L783,977L887,904Z" fill="#63b267" stroke="#63b267" stroke-width="1.51"/><path d="M806,204L788,288L890,231Z" fill="#b1df90" stroke="#b1df90" stroke-width="1.51"/><path d="M746,695L761,740L879,729Z" fill="#79c576" stroke="#79c576" stroke-width="1.51"/><path d="M585,1340L477,1356L657,1354Z" fill="#63965e" stroke="#63965e" stroke-width="1.51"/><path d="M672,1192L657,1354L797,1197Z" fill="#5c9b5e" stroke="#5c9b5e" stroke-width="1.51"/><path d="M797,1197L657,1354L801,1378Z" fill="#56945a" stroke="#56945a" stroke-width="1.51"/><path d="M783,977L685,1088L801,1129Z" fill="#61a862" stroke="#61a862" stroke-width="1.51"/><path d="M794,44L652,111L806,204Z" fill="#c2e699" stroke="#c2e699" stroke-width="1.51"/><path d="M634,442L765,546L824,412Z" fill="#9fd688" stroke="#9fd688" stroke-width="1.51"/><path d="M788,288L699,287L824,412Z" fill="#acdd8e" stroke="#acdd8e" stroke-width="1.51"/><path d="M699,287L634,442L824,412Z" fill="#abdc8d" stroke="#abdc8d" stroke-width="1.51"/><path d="M680,906L783,977L826,860Z" fill="#6ab56a" stroke="#6ab56a" stroke-width="1.51"/><path d="M761,740L680,906L826,860Z" fill="#70bd70" stroke="#70bd70" stroke-width="1.51"/><path d="M678,737L680,906L761,740Z" fill="#78c374" stroke="#78c374" stroke-width="1.51"/><path d="M666,-9L788,-6L788,-123Z" fill="#cdeaa5" stroke="#cdeaa5" stroke-width="1.51"/><path d="M672,1192L797,1197L801,1129Z" fill="#5ba05f" stroke="#5ba05f" stroke-width="1.51"/><path d="M699,287L788,288L806,204Z" fill="#b4e091" stroke="#b4e091" stroke-width="1.51"/><path d="M652,231L699,287L806,204Z" fill="#bbe394" stroke="#bbe394" stroke-width="1.51"/><path d="M652,111L652,231L806,204Z" fill="#c1e698" stroke="#c1e698" stroke-width="1.51"/><path d="M646,-114L666,-9L788,-123Z" fill="#d1ecab" stroke="#d1ecab" stroke-width="1.51"/><path d="M685,1088L672,1192L801,1129Z" fill="#61a462" stroke="#61a462" stroke-width="1.51"/><path d="M669,689L746,695L765,546Z" fill="#89cd7e" stroke="#89cd7e" stroke-width="1.51"/><path d="M634,442L634,513L765,546Z" fill="#a0d788" stroke="#a0d788" stroke-width="1.51"/><path d="M650,1000L685,1088L783,977Z" fill="#68ad66" stroke="#68ad66" stroke-width="1.51"/><path d="M788,-6L666,-9L794,44Z" fill="#cae9a0" stroke="#cae9a0" stroke-width="1.51"/><path d="M666,-9L652,111L794,44Z" fill="#cbea9f" stroke="#cbea9f" stroke-width="1.51"/><path d="M680,906L650,1000L783,977Z" fill="#6cb369" stroke="#6cb369" stroke-width="1.51"/><path d="M634,513L669,689L765,546Z" fill="#94d284" stroke="#94d284" stroke-width="1.51"/><path d="M746,695L678,737L761,740Z" fill="#7fc779" stroke="#7fc779" stroke-width="1.51"/><path d="M337,1324L97,1379L477,1356Z" fill="#769d68" stroke="#769d68" stroke-width="1.51"/><path d="M669,689L678,737L746,695Z" fill="#84ca7b" stroke="#84ca7b" stroke-width="1.51"/><path d="M582,1218L585,1340L657,1354Z" fill="#62995f" stroke="#62995f" stroke-width="1.51"/><path d="M634,513L540,656L669,689Z" fill="#95d284" stroke="#95d284" stroke-width="1.51"/><path d="M582,1218L657,1354L672,1192Z" fill="#629d60" stroke="#629d60" stroke-width="1.51"/><path d="M531,763L566,886L678,737Z" fill="#82c779" stroke="#82c779" stroke-width="1.51"/><path d="M678,737L566,886L680,906Z" fill="#7ac173" stroke="#7ac173" stroke-width="1.51"/><path d="M567,1099L672,1192L685,1088Z" fill="#68a864" stroke="#68a864" stroke-width="1.51"/><path d="M652,231L536,304L699,287Z" fill="#bee596" stroke="#bee596" stroke-width="1.51"/><path d="M536,304L634,442L699,287Z" fill="#b7e193" stroke="#b7e193" stroke-width="1.51"/><path d="M646,-114L579,-38L666,-9Z" fill="#d7efaa" stroke="#d7efaa" stroke-width="1.51"/><path d="M552,46L652,111L666,-9Z" fill="#d2eda2" stroke="#d2eda2" stroke-width="1.51"/><path d="M566,886L650,1000L680,906Z" fill="#75b96e" stroke="#75b96e" stroke-width="1.51"/><path d="M650,1000L567,1099L685,1088Z" fill="#6cad67" stroke="#6cad67" stroke-width="1.51"/><path d="M531,202L652,231L652,111Z" fill="#c9e99b" stroke="#c9e99b" stroke-width="1.51"/><path d="M567,1099L582,1218L672,1192Z" fill="#68a664" stroke="#68a664" stroke-width="1.51"/><path d="M669,689L531,763L678,737Z" fill="#87cb7c" stroke="#87cb7c" stroke-width="1.51"/><path d="M521,534L540,656L634,513Z" fill="#a0d789" stroke="#a0d789" stroke-width="1.51"/><path d="M540,656L531,763L669,689Z" fill="#8ece80" stroke="#8ece80" stroke-width="1.51"/><path d="M566,886L533,975L650,1000Z" fill="#77b86d" stroke="#77b86d" stroke-width="1.51"/><path d="M579,-38L552,46L666,-9Z" fill="#d7efa6" stroke="#d7efa6" stroke-width="1.51"/><path d="M584,461L634,513L634,442Z" fill="#a8db8c" stroke="#a8db8c" stroke-width="1.51"/><path d="M536,304L584,461L634,442Z" fill="#b4e091" stroke="#b4e091" stroke-width="1.51"/><path d="M241,1325L97,1379L337,1324Z" fill="#7aa06a" stroke="#7aa06a" stroke-width="1.51"/><path d="M533,975L567,1099L650,1000Z" fill="#73b16a" stroke="#73b16a" stroke-width="1.51"/><path d="M531,202L536,304L652,231Z" fill="#c6e899" stroke="#c6e899" stroke-width="1.51"/><path d="M552,46L531,202L652,111Z" fill="#d1eca0" stroke="#d1eca0" stroke-width="1.51"/><path d="M517,-188L579,-38L646,-114Z" fill="#dcf1b3" stroke="#dcf1b3" stroke-width="1.51"/><path d="M584,461L521,534L634,513Z" fill="#a7da8c" stroke="#a7da8c" stroke-width="1.51"/><path d="M292,-152L449,-153L517,-188Z" fill="#e9f6be" stroke="#e9f6be" stroke-width="1.51"/><path d="M449,-153L460,-56L517,-188Z" fill="#e4f4b8" stroke="#e4f4b8" stroke-width="1.51"/><path d="M482,173L531,202L552,46Z" fill="#d3eda1" stroke="#d3eda1" stroke-width="1.51"/><path d="M517,-188L460,-56L579,-38Z" fill="#e0f2b3" stroke="#e0f2b3" stroke-width="1.51"/><path d="M422,1250L477,1356L582,1218Z" fill="#6ca064" stroke="#6ca064" stroke-width="1.51"/><path d="M567,1099L447,1134L582,1218Z" fill="#6fa967" stroke="#6fa967" stroke-width="1.51"/><path d="M536,304L438,337L584,461Z" fill="#bde495" stroke="#bde495" stroke-width="1.51"/><path d="M438,337L444,468L584,461Z" fill="#b8e293" stroke="#b8e293" stroke-width="1.51"/><path d="M582,1218L477,1356L585,1340Z" fill="#679b61" stroke="#679b61" stroke-width="1.51"/><path d="M531,763L451,885L566,886Z" fill="#84c477" stroke="#84c477" stroke-width="1.51"/><path d="M444,468L521,534L584,461Z" fill="#aedd8f" stroke="#aedd8f" stroke-width="1.51"/><path d="M444,468L460,509L521,534Z" fill="#afde8f" stroke="#afde8f" stroke-width="1.51"/><path d="M460,-56L552,46L579,-38Z" fill="#def1aa" stroke="#def1aa" stroke-width="1.51"/><path d="M447,1134L422,1250L582,1218Z" fill="#70a767" stroke="#70a767" stroke-width="1.51"/><path d="M521,534L485,651L540,656Z" fill="#9ed688" stroke="#9ed688" stroke-width="1.51"/><path d="M533,975L447,1134L567,1099Z" fill="#75b06a" stroke="#75b06a" stroke-width="1.51"/><path d="M427,969L447,1134L533,975Z" fill="#7bb56e" stroke="#7bb56e" stroke-width="1.51"/><path d="M485,651L531,763L540,656Z" fill="#95d182" stroke="#95d182" stroke-width="1.51"/><path d="M451,885L533,975L566,886Z" fill="#7fbe73" stroke="#7fbe73" stroke-width="1.51"/><path d="M423,772L451,885L531,763Z" fill="#8bcb7c" stroke="#8bcb7c" stroke-width="1.51"/><path d="M408,121L482,173L552,46Z" fill="#d8f0a4" stroke="#d8f0a4" stroke-width="1.51"/><path d="M460,-56L408,121L552,46Z" fill="#dff2a8" stroke="#dff2a8" stroke-width="1.51"/><path d="M485,651L423,772L531,763Z" fill="#93d081" stroke="#93d081" stroke-width="1.51"/><path d="M451,885L427,969L533,975Z" fill="#81bc73" stroke="#81bc73" stroke-width="1.51"/><path d="M531,202L482,173L536,304Z" fill="#ccea9c" stroke="#ccea9c" stroke-width="1.51"/><path d="M482,173L438,337L536,304Z" fill="#cae99c" stroke="#cae99c" stroke-width="1.51"/><path d="M460,509L485,651L521,534Z" fill="#a6da8c" stroke="#a6da8c" stroke-width="1.51"/><path d="M427,969L354,1041L447,1134Z" fill="#7fb56f" stroke="#7fb56f" stroke-width="1.51"/><path d="M358,512L342,632L460,509Z" fill="#b0de90" stroke="#b0de90" stroke-width="1.51"/><path d="M352,120L408,121L460,-56Z" fill="#e2f4a9" stroke="#e2f4a9" stroke-width="1.51"/><path d="M408,121L324,219L482,173Z" fill="#daf1a4" stroke="#daf1a4" stroke-width="1.51"/><path d="M362,314L438,337L482,173Z" fill="#ceeb9d" stroke="#ceeb9d" stroke-width="1.51"/><path d="M324,219L362,314L482,173Z" fill="#d4eea1" stroke="#d4eea1" stroke-width="1.51"/><path d="M460,509L342,632L485,651Z" fill="#a6da8c" stroke="#a6da8c" stroke-width="1.51"/><path d="M342,632L423,772L485,651Z" fill="#9dd587" stroke="#9dd587" stroke-width="1.51"/><path d="M307,-76L352,120L460,-56Z" fill="#e9f7ae" stroke="#e9f7ae" stroke-width="1.51"/><path d="M422,1250L337,1324L477,1356Z" fill="#719f66" stroke="#719f66" stroke-width="1.51"/><path d="M438,337L339,431L444,468Z" fill="#c0e597" stroke="#c0e597" stroke-width="1.51"/><path d="M360,1261L337,1324L422,1250Z" fill="#75a368" stroke="#75a368" stroke-width="1.51"/><path d="M368,1143L422,1250L447,1134Z" fill="#77ab6b" stroke="#77ab6b" stroke-width="1.51"/><path d="M354,1041L368,1143L447,1134Z" fill="#7db16e" stroke="#7db16e" stroke-width="1.51"/><path d="M423,772L346,860L451,885Z" fill="#8dca7c" stroke="#8dca7c" stroke-width="1.51"/><path d="M444,468L358,512L460,509Z" fill="#b4e092" stroke="#b4e092" stroke-width="1.51"/><path d="M449,-153L307,-76L460,-56Z" fill="#e9f6b7" stroke="#e9f6b7" stroke-width="1.51"/><path d="M342,632L327,773L423,772Z" fill="#9cd385" stroke="#9cd385" stroke-width="1.51"/><path d="M362,314L339,431L438,337Z" fill="#c8e99a" stroke="#c8e99a" stroke-width="1.51"/><path d="M292,-152L307,-76L449,-153Z" fill="#edf8bd" stroke="#edf8bd" stroke-width="1.51"/><path d="M346,860L427,969L451,885Z" fill="#89c277" stroke="#89c277" stroke-width="1.51"/><path d="M352,120L324,219L408,121Z" fill="#def2a6" stroke="#def2a6" stroke-width="1.51"/><path d="M339,431L358,512L444,468Z" fill="#bae394" stroke="#bae394" stroke-width="1.51"/><path d="M368,1143L360,1261L422,1250Z" fill="#77a96a" stroke="#77a96a" stroke-width="1.51"/><path d="M327,773L346,860L423,772Z" fill="#93ce80" stroke="#93ce80" stroke-width="1.51"/><path d="M346,860L354,1041L427,969Z" fill="#87be75" stroke="#87be75" stroke-width="1.51"/><path d="M346,860L247,1000L354,1041Z" fill="#89be76" stroke="#89be76" stroke-width="1.51"/><path d="M194,-14L213,93L307,-76Z" fill="#eff9b3" stroke="#eff9b3" stroke-width="1.51"/><path d="M238,619L327,773L342,632Z" fill="#a6d88b" stroke="#a6d88b" stroke-width="1.51"/><path d="M307,-76L213,93L352,120Z" fill="#eaf7af" stroke="#eaf7af" stroke-width="1.51"/><path d="M238,619L342,632L358,512Z" fill="#afdd91" stroke="#afdd91" stroke-width="1.51"/><path d="M242,342L339,431L362,314Z" fill="#cbea9d" stroke="#cbea9d" stroke-width="1.51"/><path d="M354,1041L201,1132L368,1143Z" fill="#81b371" stroke="#81b371" stroke-width="1.51"/><path d="M201,1132L240,1220L368,1143Z" fill="#80af70" stroke="#80af70" stroke-width="1.51"/><path d="M240,1220L360,1261L368,1143Z" fill="#7bab6d" stroke="#7bab6d" stroke-width="1.51"/><path d="M199,876L247,1000L346,860Z" fill="#90c57c" stroke="#90c57c" stroke-width="1.51"/><path d="M247,1000L201,1132L354,1041Z" fill="#86b874" stroke="#86b874" stroke-width="1.51"/><path d="M197,564L238,619L358,512Z" fill="#b5e094" stroke="#b5e094" stroke-width="1.51"/><path d="M324,219L242,342L362,314Z" fill="#d3eda1" stroke="#d3eda1" stroke-width="1.51"/><path d="M339,431L197,564L358,512Z" fill="#bae396" stroke="#bae396" stroke-width="1.51"/><path d="M240,1220L337,1324L360,1261Z" fill="#79a66a" stroke="#79a66a" stroke-width="1.51"/><path d="M240,1220L241,1325L337,1324Z" fill="#7aa46b" stroke="#7aa46b" stroke-width="1.51"/><path d="M213,93L324,219L352,120Z" fill="#e1f3a9" stroke="#e1f3a9" stroke-width="1.51"/><path d="M238,619L241,795L327,773Z" fill="#a1d589" stroke="#a1d589" stroke-width="1.51"/><path d="M327,773L241,795L346,860Z" fill="#95ce82" stroke="#95ce82" stroke-width="1.51"/><path d="M88,-172L247,-129L292,-152Z" fill="#f4fbc5" stroke="#f4fbc5" stroke-width="1.51"/><path d="M214,393L197,564L339,431Z" fill="#c2e69a" stroke="#c2e69a" stroke-width="1.51"/><path d="M242,342L214,393L339,431Z" fill="#cbea9d" stroke="#cbea9d" stroke-width="1.51"/><path d="M241,795L199,876L346,860Z" fill="#96cc80" stroke="#96cc80" stroke-width="1.51"/><path d="M213,93L178,187L324,219Z" fill="#e3f4aa" stroke="#e3f4aa" stroke-width="1.51"/><path d="M178,187L242,342L324,219Z" fill="#dbf1a5" stroke="#dbf1a5" stroke-width="1.51"/><path d="M292,-152L247,-129L307,-76Z" fill="#f0f9be" stroke="#f0f9be" stroke-width="1.51"/><path d="M-162,-136L23,-147L88,-172Z" fill="#fcfdd2" stroke="#fcfdd2" stroke-width="1.51"/><path d="M247,-129L194,-14L307,-76Z" fill="#f1faba" stroke="#f1faba" stroke-width="1.51"/><path d="M129,915L136,974L199,876Z" fill="#95c67f" stroke="#95c67f" stroke-width="1.51"/><path d="M136,974L102,1110L201,1132Z" fill="#8cb978" stroke="#8cb978" stroke-width="1.51"/><path d="M55,470L197,564L214,393Z" fill="#c5e79d" stroke="#c5e79d" stroke-width="1.51"/><path d="M240,1220L127,1249L241,1325Z" fill="#7ea86f" stroke="#7ea86f" stroke-width="1.51"/><path d="M238,619L125,626L241,795Z" fill="#aada8f" stroke="#aada8f" stroke-width="1.51"/><path d="M125,626L64,746L241,795Z" fill="#a8d88e" stroke="#a8d88e" stroke-width="1.51"/><path d="M178,187L128,235L242,342Z" fill="#def2a7" stroke="#def2a7" stroke-width="1.51"/><path d="M128,235L105,271L242,342Z" fill="#dcf1a7" stroke="#dcf1a7" stroke-width="1.51"/><path d="M136,974L201,1132L247,1000Z" fill="#8bbb77" stroke="#8bbb77" stroke-width="1.51"/><path d="M199,876L136,974L247,1000Z" fill="#91c37c" stroke="#91c37c" stroke-width="1.51"/><path d="M129,-50L194,-14L247,-129Z" fill="#f4fbbc" stroke="#f4fbbc" stroke-width="1.51"/><path d="M88,-172L129,-50L247,-129Z" fill="#f7fcc4" stroke="#f7fcc4" stroke-width="1.51"/><path d="M201,1132L127,1249L240,1220Z" fill="#82ae72" stroke="#82ae72" stroke-width="1.51"/><path d="M105,271L214,393L242,342Z" fill="#d5eea3" stroke="#d5eea3" stroke-width="1.51"/><path d="M127,1249L97,1379L241,1325Z" fill="#7fa46e" stroke="#7fa46e" stroke-width="1.51"/><path d="M64,746L199,876L241,795Z" fill="#9dd287" stroke="#9dd287" stroke-width="1.51"/><path d="M197,564L125,626L238,619Z" fill="#b4df95" stroke="#b4df95" stroke-width="1.51"/><path d="M55,470L75,578L197,564Z" fill="#c0e59b" stroke="#c0e59b" stroke-width="1.51"/><path d="M64,746L129,915L199,876Z" fill="#9dcf85" stroke="#9dcf85" stroke-width="1.51"/><path d="M102,1110L127,1249L201,1132Z" fill="#86b274" stroke="#86b274" stroke-width="1.51"/><path d="M194,-14L128,110L213,93Z" fill="#eef9b2" stroke="#eef9b2" stroke-width="1.51"/><path d="M128,110L178,187L213,93Z" fill="#e9f7ae" stroke="#e9f7ae" stroke-width="1.51"/><path d="M105,271L55,470L214,393Z" fill="#d3eda3" stroke="#d3eda3" stroke-width="1.51"/><path d="M129,-50L128,110L194,-14Z" fill="#f3fbb6" stroke="#f3fbb6" stroke-width="1.51"/><path d="M75,578L125,626L197,564Z" fill="#b8e198" stroke="#b8e198" stroke-width="1.51"/><path d="M128,110L128,235L178,187Z" fill="#e7f6ad" stroke="#e7f6ad" stroke-width="1.51"/><path d="M-2,1210L-53,1336L97,1379Z" fill="#83a777" stroke="#83a777" stroke-width="1.51"/><path d="M2,992L8,1098L102,1110Z" fill="#90bb7e" stroke="#90bb7e" stroke-width="1.51"/><path d="M-36,400L55,470L105,271Z" fill="#d5eea9" stroke="#d5eea9" stroke-width="1.51"/><path d="M-46,328L-36,400L105,271Z" fill="#dbf0ae" stroke="#dbf0ae" stroke-width="1.51"/><path d="M102,1110L-2,1210L127,1249Z" fill="#88b177" stroke="#88b177" stroke-width="1.51"/><path d="M-2,1210L97,1379L127,1249Z" fill="#84a974" stroke="#84a974" stroke-width="1.51"/><path d="M-35,-13L-55,65L128,110Z" fill="#f4fbbd" stroke="#f4fbbd" stroke-width="1.51"/><path d="M4,168L128,235L128,110Z" fill="#eaf7b0" stroke="#eaf7b0" stroke-width="1.51"/><path d="M64,746L-41,893L129,915Z" fill="#9ecf89" stroke="#9ecf89" stroke-width="1.51"/><path d="M88,-172L23,-147L129,-50Z" fill="#fafdc8" stroke="#fafdc8" stroke-width="1.51"/><path d="M-35,-13L128,110L129,-50Z" fill="#f6fcba" stroke="#f6fcba" stroke-width="1.51"/><path d="M129,915L2,992L136,974Z" fill="#96c47f" stroke="#96c47f" stroke-width="1.51"/><path d="M2,992L102,1110L136,974Z" fill="#92be7d" stroke="#92be7d" stroke-width="1.51"/><path d="M75,578L64,746L125,626Z" fill="#b3de95" stroke="#b3de95" stroke-width="1.51"/><path d="M4,168L105,271L128,235Z" fill="#e6f5ae" stroke="#e6f5ae" stroke-width="1.51"/><path d="M-55,65L4,168L128,110Z" fill="#eff9b8" stroke="#eff9b8" stroke-width="1.51"/><path d="M-41,893L2,992L129,915Z" fill="#98c785" stroke="#98c785" stroke-width="1.51"/><path d="M23,-147L-35,-13L129,-50Z" fill="#fafdc5" stroke="#fafdc5" stroke-width="1.51"/><path d="M-4,740L64,746L75,578Z" fill="#afdc96" stroke="#afdc96" stroke-width="1.51"/><path d="M-4,740L-41,893L64,746Z" fill="#a4d591" stroke="#a4d591" stroke-width="1.51"/><path d="M-57,648L-4,740L75,578Z" fill="#b4de9b" stroke="#b4de9b" stroke-width="1.51"/><path d="M55,470L10,520L75,578Z" fill="#c4e6a1" stroke="#c4e6a1" stroke-width="1.51"/><path d="M8,1098L-2,1210L102,1110Z" fill="#8bb67b" stroke="#8bb67b" stroke-width="1.51"/><path d="M4,168L-46,328L105,271Z" fill="#e3f4b1" stroke="#e3f4b1" stroke-width="1.51"/><path d="M10,520L-57,648L75,578Z" fill="#bde3a0" stroke="#bde3a0" stroke-width="1.51"/><path d="M-36,400L10,520L55,470Z" fill="#cbeaa6" stroke="#cbeaa6" stroke-width="1.51"/><path d="M-128,215L-121,285L-46,328Z" fill="#e3f4b9" stroke="#e3f4b9" stroke-width="1.51"/><path d="M-115,801L-41,893L-4,740Z" fill="#a3d494" stroke="#a3d494" stroke-width="1.51"/><path d="M-103,1253L-53,1336L-2,1210Z" fill="#86ab7d" stroke="#86ab7d" stroke-width="1.51"/><path d="M-128,215L-46,328L4,168Z" fill="#e6f5b8" stroke="#e6f5b8" stroke-width="1.51"/><path d="M-92,1148L-2,1210L8,1098Z" fill="#8bb57f" stroke="#8bb57f" stroke-width="1.51"/><path d="M-96,579L-57,648L10,520Z" fill="#bde3a4" stroke="#bde3a4" stroke-width="1.51"/><path d="M-36,400L-104,439L10,520Z" fill="#cdeaab" stroke="#cdeaab" stroke-width="1.51"/><path d="M-162,-136L-96,-72L23,-147Z" fill="#fcfed3" stroke="#fcfed3" stroke-width="1.51"/><path d="M-96,-72L-35,-13L23,-147Z" fill="#fbfdcb" stroke="#fbfdcb" stroke-width="1.51"/><path d="M2,992L-154,1026L8,1098Z" fill="#92be85" stroke="#92be85" stroke-width="1.51"/><path d="M-154,1026L-92,1148L8,1098Z" fill="#90ba86" stroke="#90ba86" stroke-width="1.51"/><path d="M-104,439L-96,579L10,520Z" fill="#c7e7a9" stroke="#c7e7a9" stroke-width="1.51"/><path d="M-55,65L-117,80L4,168Z" fill="#f2fabf" stroke="#f2fabf" stroke-width="1.51"/><path d="M-41,893L-154,1026L2,992Z" fill="#97c48a" stroke="#97c48a" stroke-width="1.51"/><path d="M-117,80L-128,215L4,168Z" fill="#eef9be" stroke="#eef9be" stroke-width="1.51"/><path d="M-116,886L-154,1026L-41,893Z" fill="#9ac790" stroke="#9ac790" stroke-width="1.51"/><path d="M-92,1148L-103,1253L-2,1210Z" fill="#89b181" stroke="#89b181" stroke-width="1.51"/><path d="M-57,648L-115,801L-4,740Z" fill="#acda9b" stroke="#acda9b" stroke-width="1.51"/><path d="M-131,656L-115,801L-57,648Z" fill="#b0dba0" stroke="#b0dba0" stroke-width="1.51"/><path d="M-115,801L-116,886L-41,893Z" fill="#a0cf94" stroke="#a0cf94" stroke-width="1.51"/><path d="M-46,328L-104,439L-36,400Z" fill="#d6eeb0" stroke="#d6eeb0" stroke-width="1.51"/><path d="M-117,80L-55,65L-35,-13Z" fill="#f6fcc4" stroke="#f6fcc4" stroke-width="1.51"/><path d="M-96,-72L-117,80L-35,-13Z" fill="#fafdc7" stroke="#fafdc7" stroke-width="1.51"/><path d="M-121,285L-104,439L-46,328Z" fill="#dbf0b4" stroke="#dbf0b4" stroke-width="1.51"/><path d="M-96,579L-131,656L-57,648Z" fill="#b9e0a5" stroke="#b9e0a5" stroke-width="1.51"/><path d="M-103,1253L-160,1307L-53,1336Z" fill="#85a87f" stroke="#85a87f" stroke-width="1.51"/><path d="M-104,439L-131,656L-96,579Z" fill="#c1e5aa" stroke="#c1e5aa" stroke-width="1.51"/><path d="M-162,-136L-117,80L-96,-72Z" fill="#fbfdcf" stroke="#fbfdcf" stroke-width="1.51"/><path d="M-160,1307L-103,1253L-92,1148Z" fill="#88ae83" stroke="#88ae83" stroke-width="1.51"/><path d="M-154,1026L-160,1307L-92,1148Z" fill="#8cb587" stroke="#8cb587" stroke-width="1.51"/><path d="M-121,285L-131,656L-104,439Z" fill="#cdeab1" stroke="#cdeab1" stroke-width="1.51"/><path d="M-154,1026L-116,886L-115,801Z" fill="#9dcb94" stroke="#9dcb94" stroke-width="1.51"/><path d="M-131,656L-154,1026L-115,801Z" fill="#a3d299" stroke="#a3d299" stroke-width="1.51"/><path d="M-128,215L-131,656L-121,285Z" fill="#d7eeb5" stroke="#d7eeb5" stroke-width="1.51"/><path d="M-162,-136L-128,215L-117,80Z" fill="#f7fcc8" stroke="#f7fcc8" stroke-width="1.51"/><path d="M-162,-136L-131,656L-128,215Z" fill="#e7f5bd" stroke="#e7f5bd" stroke-width="1.51"/><path d="M-162,-136L-154,1026L-131,656Z" fill="#c7e8b0" stroke="#c7e8b0" stroke-width="1.51"/></svg>